<?xml version="1.0" encoding="UTF-8"?>
<svg width="24px" height="24px" viewBox="0 0 24 24" version="1.1" xmlns="http://www.w3.org/2000/svg" xmlns:xlink="http://www.w3.org/1999/xlink">
    <title>3A5A21B1-BF36-4383-862A-DC794FADF043@1x</title>
    <g id="Symbols" stroke="none" stroke-width="1" fill="none" fill-rule="evenodd">
        <g id="Account-settings" fill="#121212">
            <path d="M13.8618017,4 C14.048809,4.00175971 14.2082431,4.13601994 14.2418017,4.32 L14.2418017,4.32 L14.5218017,6.32 C14.9752481,6.51092191 15.4021172,6.75964884 15.7918017,7.06 L15.7918017,7.06 L17.6818017,6.31 C17.8535686,6.24067136 18.0501344,6.3090421 18.1418017,6.47 L18.1418017,6.47 L19.6518017,9.08 C19.7466487,9.23988942 19.7081284,9.44533065 19.5618017,9.56 L19.5618017,9.56 L17.9618017,10.8 L18.0218017,11.56 L17.9618017,12.32 L19.5418017,13.56 C19.6881284,13.6746693 19.7266487,13.8801106 19.6318017,14.04 L19.6318017,14.04 L18.1218017,16.66 C18.0301344,16.8209579 17.8335686,16.8893286 17.6618017,16.82 L17.6618017,16.82 L15.7718017,16.07 C15.3821172,16.3703512 14.9552481,16.6190781 14.5018017,16.81 L14.5018017,16.81 L14.2218017,18.81 C14.1882431,18.9939801 14.028809,19.1282403 13.8418017,19.13 L13.8418017,19.13 L10.8418017,19.13 C10.6547943,19.1282403 10.4953603,18.9939801 10.4618017,18.81 L10.4618017,18.81 L10.1818017,16.81 C9.72294421,16.6195115 9.29228861,16.3671742 8.90180169,16.06 L8.90180169,16.06 L7.02180169,16.82 C6.84991878,16.880729 6.65889658,16.8142865 6.56180169,16.66 L6.56180169,16.66 L5.05180169,14.04 C4.9569547,13.8801106 4.99547493,13.6746693 5.14180169,13.56 L5.14180169,13.56 L6.73180169,12.29 L6.73180169,10.8 L5.14180169,9.56 C5.00089201,9.44642879 4.96281716,9.2475935 5.05180169,9.09 L5.05180169,9.09 L6.56180169,6.47 C6.65346893,6.3090421 6.85003478,6.24067136 7.02180169,6.31 L7.02180169,6.31 L8.92180169,7.06 C9.31503055,6.75955516 9.7452158,6.51085431 10.2018017,6.32 L10.2018017,6.32 L10.4818017,4.32 C10.5153603,4.13601994 10.6747943,4.00175971 10.8618017,4 L10.8618017,4 Z M12.3518017,8.56 C10.6949474,8.56 9.35180169,9.90314575 9.35180169,11.56 C9.35180169,13.2168542 10.6949474,14.56 12.3518017,14.56 C14.0086559,14.56 15.3518017,13.2168542 15.3518017,11.56 C15.3518017,9.90314575 14.0086559,8.56 12.3518017,8.56 Z"></path>
        </g>
    </g>
</svg>