<?xml version="1.0" encoding="UTF-8"?>
<svg width="24px" height="24px" viewBox="0 0 24 24" version="1.1" xmlns="http://www.w3.org/2000/svg" xmlns:xlink="http://www.w3.org/1999/xlink">
    <title>0549CFB9-DD59-48C9-B464-4EEBD30B9F22@1x</title>
    <g id="Symbols" stroke="none" stroke-width="1" fill="none" fill-rule="evenodd">
        <g id="Projects" fill="#000000">
            <path d="M5.5,7.48 L5.5,17.84 C5.50536771,18.2022613 5.79773874,18.4946323 6.16,18.5 L16.93,18.5 L16.93,20 L6.16,20 C4.96706494,20 4,19.0329351 4,17.84 L4,7.48 L5.5,7.48 Z M18.34,4.25 C19.1187215,4.25 19.75,4.8812785 19.75,5.66 L19.75,15.52 C19.75,16.2987215 19.1187215,16.93 18.34,16.93 L8.48,16.93 C8.10604475,16.93 7.74740573,16.7814469 7.48297944,16.5170206 C7.21855314,16.2525943 7.07,15.8939553 7.07,15.52 L7.07,5.66 C7.07,5.28604475 7.21855314,4.92740573 7.48297944,4.66297944 C7.74740573,4.39855314 8.10604475,4.25 8.48,4.25 L18.34,4.25 Z M13.41,12.84 L9.89,12.84 L9.89,14.34 L13.41,14.34 L13.41,12.84 Z M16.93,9.84 L9.93,9.84 L9.93,11.34 L16.93,11.34 L16.93,9.84 Z M16.93,6.84 L9.93,6.84 L9.93,8.34 L16.93,8.34 L16.93,6.84 Z" id="Combined-Shape"></path>
        </g>
    </g>
</svg>