<?xml version="1.0" encoding="UTF-8"?>
<svg width="24px" height="24px" viewBox="0 0 24 24" version="1.1" xmlns="http://www.w3.org/2000/svg" xmlns:xlink="http://www.w3.org/1999/xlink">
    <title>0E45DD2C-C919-4CA2-B30E-9BA5FC344757@1x</title>
    <g id="Symbols" stroke="none" stroke-width="1" fill="none" fill-rule="evenodd">
        <g id="Sign-out" fill="#000000">
            <path d="M17.75,3.99996057 C18.4435788,4.01092385 19,4.5763352 19,5.27 L19,5.27 L19,8.9 L17.53,7.4 L17.53,5.5 L5.53,5.5 L5.53,18.5 L17.53,18.5 L17.5,16.59 L19,15.09 L19,18.73 C19,19.4236648 18.4435788,19.9890762 17.75,20.0000394 L17.75,20.0000394 L5.28,20.0000394 C4.94144576,20.0026659 4.61584133,19.8700405 4.37550293,19.6315797 C4.13516453,19.393119 4,19.0685647 4,18.73 L4,18.73 L4,5.27 C4,4.93143527 4.13516453,4.60688104 4.37550293,4.36842028 C4.61584133,4.12995952 4.94144576,3.99733414 5.28,3.99996057 L5.28,3.99996057 Z M14.2,6.21 L20,12 L14.2,17.79 L14.2,14.48 L9.2,14.48 L9.2,9.48 L14.2,9.48 L14.2,6.21 Z" id="Combined-Shape"></path>
        </g>
    </g>
</svg>