<svg xmlns="http://www.w3.org/2000/svg" viewBox="0 0 139.89 26.72" width="139px" height="27px"><defs><style>.cls-1{fill:#fff;}</style></defs><g id="Layer_2" data-name="Layer 2"><g id="Layer_1-2" data-name="Layer 1"><path class="cls-1" d="M139.38,6.63h.51l-.25-4H139l-1.13,3.25-1.09-3.25h-.65l-.27,4h.49l.18-3.45,1.11,3.43H138l1.19-3.43Zm-5.59,0h.51V3.11h1.21V2.67h-2.93v.44h1.21Z"/><path class="cls-1" d="M34.49,14.66H27.77c-.3,0-.41-.24-.31-.51.88-2.54,3.59-4.87,6.34-3.4,1.26.71,1.24,2.31,1.09,3.53a.4.4,0,0,1-.4.38M35.4,7A9.17,9.17,0,0,0,25.25,9.74,12.76,12.76,0,0,0,23,14.85c-.51,2.19-1,5.1-.24,7.28,1,2.89,3.87,4.33,6.8,4.33h6.25a.79.79,0,0,0,.76-.77,3,3,0,0,0-3.14-3.09H30.71a6.74,6.74,0,0,1-2.82-.42c-1.38-.66-1.49-2.23-1.31-3.56a.44.44,0,0,1,.45-.4H37.41A1.43,1.43,0,0,0,38.75,17a20.53,20.53,0,0,0,.44-2.7C39.47,11.28,38.37,8.17,35.4,7ZM95.22,24.5,90,13.32,99.11,2a1,1,0,0,0-.8-1.78H96.55A1.6,1.6,0,0,0,95.32.8L85.94,12.34l1.51-3.73a.78.78,0,0,0,0-.65L84.14.85A1.15,1.15,0,0,0,83.08.13H66C75.74.85,79.6,1.94,82.13,6.31c1.21,2.14,2.16,4.42,3.19,6.65L76,24.35a1.63,1.63,0,0,0-.48,1,1,1,0,0,0,.91,1.08h2.24A1.72,1.72,0,0,0,80,25.74l7.16-8.86L91,25.11c.33.72.63,1.35,1.46,1.35h1.64a1.22,1.22,0,0,0,1.24-.77A1.39,1.39,0,0,0,95.22,24.5ZM128.34,6.72c-3.67-.53-8.35-.88-11,2.33a5,5,0,0,0,.43,6.33c1.67,1.95,4.38,2.58,6.08,4.47a1.72,1.72,0,0,1-.48,2.54c-1.58,1.05-5.15.52-6.85.21-.86-.11-1.68-.14-2,.66a4.43,4.43,0,0,0-.32,1.86c.09.77.94,1.06,1.59,1.19a22.63,22.63,0,0,0,4.27.41c3.25,0,6.51-.64,8.09-3.81a5.66,5.66,0,0,0-.31-4.95c-1-1.5-2.65-2.37-4.14-3.34-.9-.59-2.42-1.3-2.86-2.28a1.32,1.32,0,0,1,.42-1.46c1.44-1.28,5.6-.48,7.3-.34a1.34,1.34,0,0,0,1.35-.72,4.39,4.39,0,0,0,.3-1.75C130.23,7.06,129.46,6.88,128.34,6.72Zm-76.46,0H44.41c-.94,0-1.35.63-1.49,1.45Q41.53,16.58,40,25a1.21,1.21,0,0,0,1.14,1.45H43c.77,0,1.18-.75,1.3-1.4l2.44-14a.41.41,0,0,1,.43-.37h4.12c1.88,0,2.21,1.22,1.94,2.83L51.22,25a1.19,1.19,0,0,0,1.13,1.44h1.84c.77,0,1.17-.75,1.29-1.39l1.82-10.2c.38-2.07.35-4.43-1-6.18A5.56,5.56,0,0,0,51.88,6.68ZM20.45,0H13A11.37,11.37,0,0,0,4.44,3.67a13.65,13.65,0,0,0-3,5.51A45.12,45.12,0,0,0,.22,15.5c-.28,2.19-.47,4.55.58,6.55a8,8,0,0,0,7.3,4.41h8.7c1,0,1.35-.66,1.5-1.44l2.05-11c.12-.86-.23-1.7-1.2-1.7h-7a.72.72,0,0,0-.78.72,3.24,3.24,0,0,0,2.69,3c1.34.2,1.24.82,1.13,1.65l-.73,4.4a.4.4,0,0,1-.41.31c-5.75,0-10.52.9-9.46-7,.79-4.3.78-8.55,5.33-10.64,2.39-1.11,5.49-.72,8.06-.72A3.29,3.29,0,0,0,20,3.55,3.92,3.92,0,0,0,21.4,1C21.56.35,21.12,0,20.45,0Zm82.13,26.46h7.47c.94,0,1.36-.63,1.49-1.45q1.39-8.45,2.93-16.88a1.21,1.21,0,0,0-1.14-1.45h-1.85c-.77,0-1.18.76-1.29,1.4l-2.45,14.05a.4.4,0,0,1-.42.37H103.2c-1.88,0-2.22-1.22-1.94-2.83l2-11.55a1.18,1.18,0,0,0-1.13-1.44h-1.85c-.77,0-1.17.75-1.28,1.39l-1.82,10.2c-.38,2.07-.35,4.43,1,6.18A5.55,5.55,0,0,0,102.58,26.46ZM71.39,14.66H64.67c-.3,0-.42-.24-.31-.51.88-2.54,3.59-4.87,6.34-3.4,1.26.71,1.23,2.31,1.09,3.53A.42.42,0,0,1,71.39,14.66ZM72.29,7A9.18,9.18,0,0,0,62.14,9.74a12.75,12.75,0,0,0-2.28,5.11c-.51,2.19-1,5.1-.24,7.28,1,2.89,3.86,4.33,6.8,4.33h6.25a.79.79,0,0,0,.76-.77,3,3,0,0,0-3.15-3.09H67.6a6.79,6.79,0,0,1-2.82-.42c-1.38-.66-1.48-2.23-1.3-3.56a.43.43,0,0,1,.45-.4H74.3A1.42,1.42,0,0,0,75.64,17a19,19,0,0,0,.45-2.7C76.37,11.28,75.27,8.17,72.29,7Z"/></g></g></svg>