<?xml version="1.0" encoding="UTF-8"?>
<svg width="24px" height="24px" viewBox="0 0 24 24" version="1.1" xmlns="http://www.w3.org/2000/svg" xmlns:xlink="http://www.w3.org/1999/xlink">
    <title>Password-hidden/Enabled</title>
    <g id="Password-hidden/Enabled" stroke="none" stroke-width="1" fill="none" fill-rule="evenodd">
        <path d="M19.7305991,4.25083323 C20.0650434,4.585694 20.0650434,5.12816899 19.7305991,5.46302975 L5.64167355,19.6777493 C5.48170492,19.839722 5.26322403,19.9304122 5.03557529,19.9293467 C4.68890806,19.9290324 4.37651118,19.7200675 4.24388862,19.3997715 C4.11126607,19.0794755 4.18449863,18.710836 4.42947703,18.4655528 L18.5184026,4.25083323 C18.8532634,3.91638892 19.3957384,3.91638892 19.7305991,4.25083323 Z M17.747,9.104 L18.1589455,9.38794185 C19.2025004,10.1306915 20.1594613,10.9890887 21.0114105,11.9471375 C21.0114105,11.9471375 16.9745674,16.7044371 11.9885515,16.7044371 C11.4533951,16.6859958 10.9211745,16.6170752 10.3989731,16.4985924 L10.3989731,16.4985924 L11.3252742,15.5608555 C11.5436993,15.604651 11.7657867,15.6276255 11.9885515,15.6294704 C12.9710976,15.6386249 13.9165511,15.2547111 14.6145604,14.563145 C15.3125696,13.8715789 15.7052345,12.9297262 15.7051918,11.9471375 C15.7055541,11.7015508 15.6825792,11.4564853 15.6365769,11.2152453 L15.6365769,11.2152453 L17.747,9.104 Z M11.9885515,7.14409474 C12.600169,7.14912531 13.2095828,7.21811555 13.8068463,7.34993943 L13.8068463,7.34993943 L12.8004945,8.35629125 C12.5339706,8.29641061 12.2617179,8.26573425 11.9885515,8.26480472 C9.96826588,8.28362808 8.34043849,9.92676419 8.34052618,11.9471375 C8.34586276,12.2319943 8.38035002,12.5155563 8.44344852,12.7933879 L8.44344852,12.7933879 L6.43074487,14.8175274 L6.43074487,14.8289632 C5.16463407,14.0110297 4.01122364,13.0306309 3,11.9128301 C3,11.9128301 7.03684313,7.14409474 11.9885515,7.14409474 Z M14.5158669,12.3359553 C14.3440656,13.4020442 13.5111104,14.2396014 12.4459842,14.4172739 L12.4459842,14.4172739 Z M11.7598352,9.4426938 L9.47267198,11.729857 C9.57903355,10.5134669 10.5434451,9.54905536 11.7598352,9.4426938 L11.7598352,9.4426938 Z" id="Combined-Shape" fill="#A9ACF8"></path>
    </g>
</svg>