<?xml version="1.0" encoding="UTF-8"?>
<svg width="24px" height="24px" viewBox="0 0 24 24" version="1.1" xmlns="http://www.w3.org/2000/svg" xmlns:xlink="http://www.w3.org/1999/xlink">
    <title>929AD5E3-70D1-496E-92A5-4C88BAF2B215@1x</title>
    <g id="Symbols" stroke="none" stroke-width="1" fill="none" fill-rule="evenodd">
        <g id="Delete" fill="#a9acf8">
            <path d="M16.7900336,8.81 L16.7900336,18 C16.7926638,18.3969024 16.6368589,18.7784638 16.3571405,19.0600595 C16.077422,19.3416553 15.6969113,19.5 15.3,19.5 L8.68,19.5 C8.2830887,19.5 7.90257799,19.3416553 7.62285954,19.0600595 C7.34314109,18.7784638 7.18733617,18.3969024 7.1899664,18 L7.1899664,8.81 L16.7900336,8.81 Z M14.13,4.56 C14.7778107,4.56 15.3045101,5.08221261 15.31,5.73 L15.31,5.73 L15.31,5.89 L18.51,5.89 L18.51,7.39 L5.51,7.39 L5.51,5.89 L8.67,5.89 L8.67,5.73 C8.67548992,5.08221261 9.20218935,4.56 9.85,4.56 L9.85,4.56 Z"></path>
        </g>
    </g>
</svg>