<?xml version="1.0" encoding="UTF-8"?>
<svg width="24px" height="24px" viewBox="0 0 24 24" version="1.1" xmlns="http://www.w3.org/2000/svg" xmlns:xlink="http://www.w3.org/1999/xlink">
    <title>4C5669F9-80A9-426D-84DF-F36D2217101F@1x</title>
    <g id="Symbols" stroke="none" stroke-width="1" fill="none" fill-rule="evenodd">
        <g id="Calendar" fill="#a9acf8">
            <path d="M18.73,11.92 L18.73,18.15 C18.73,18.9690148 18.0689964,19.6345033 17.25,19.64 L17.25,19.64 L6.62,19.64 C5.80100365,19.6345033 5.14,18.9690148 5.14,18.15 L5.14,18.15 L5.14,11.92 L18.73,11.92 Z M17.24,13.42 L6.64,13.42 L6.64,18.16 L17.24,18.16 L17.24,13.42 Z M8.86,4 L8.86,6.05 L15,6.05 L15,4 L16.51,4 L16.51,6.05 L17.25,6.05 C18.0673814,6.05 18.73,6.71261857 18.73,7.53 L18.73,7.53 L18.73,10.42 L5.14,10.42 L5.14,7.53 C5.14,6.71261857 5.80261857,6.05 6.62,6.05 L6.62,6.05 L7.36,6.05 L7.36,4 L8.86,4 Z M8.86,7.48 L7.36,7.48 L7.36,9 L8.86,9 L8.86,7.48 Z M16.5,7.48 L15,7.48 L15,9 L16.51,9 L16.5,7.48 Z"></path>
        </g>
    </g>
</svg>