<?xml version="1.0" encoding="UTF-8"?>
<svg width="24px" height="24px" viewBox="0 0 24 24" version="1.1" xmlns="http://www.w3.org/2000/svg" xmlns:xlink="http://www.w3.org/1999/xlink">
    <title>Password-show/Enabled</title>
    <g id="Password-show/Enabled" stroke="none" stroke-width="1" fill="none" fill-rule="evenodd">
        <path d="M12.5,7 C17.7496831,7 22,11.9880096 22,11.9880096 L22,12.0239808 C22,12.0239808 17.7376426,17 12.5,17 C7.26235741,17 3,11.9880096 3,11.9880096 C3,11.9880096 7.25031686,7 12.5,7 Z M9.7336901,9.28969344 C8.62236862,10.3998231 8.29261231,12.06759 8.89836671,13.5144032 C9.5041211,14.9612165 10.9259193,15.9017355 12.5,15.8969012 C14.6431871,15.8902748 16.3770596,14.1582515 16.3770596,12.0239808 C16.3770596,10.4564488 15.4281951,9.04349565 13.9734593,8.4447534 C12.5187234,7.84601116 10.8450116,8.17956378 9.7336901,9.28969344 Z M12.5,9.37410072 C13.9668699,9.38066603 15.1543705,10.5632205 15.1609632,12.0239808 C15.1609632,13.4874692 13.9696094,14.6738609 12.5,14.6738609 C11.0303906,14.6738609 9.83903676,13.4874692 9.83903676,12.0239808 C9.83903676,10.5604924 11.0303906,9.37410072 12.5,9.37410072 Z" id="Password-show" fill="#A9ACF8"></path>
    </g>
</svg>