<?xml version="1.0" encoding="UTF-8"?>
<svg width="24px" height="24px" viewBox="0 0 24 24" version="1.1" xmlns="http://www.w3.org/2000/svg" xmlns:xlink="http://www.w3.org/1999/xlink">
    <title>24E100FA-1D82-4CC6-8828-58F40A4A1A9C@1x</title>
    <g id="Symbols" stroke="none" stroke-width="1" fill="none" fill-rule="evenodd">
        <g id="Show-more" fill="#a9acf8">
            <path d="M12.5,15.9 C13.3284271,15.9 14,16.5715729 14,17.4 C14,18.2284271 13.3284271,18.9 12.5,18.9 C11.6715729,18.9 11,18.2284271 11,17.4 C11,16.5715729 11.6715729,15.9 12.5,15.9 Z M12.5,10.5 C13.3284271,10.5 14,11.1715729 14,12 C14,12.8284271 13.3284271,13.5 12.5,13.5 C11.6715729,13.5 11,12.8284271 11,12 C11,11.1715729 11.6715729,10.5 12.5,10.5 Z M12.5,5.1 C13.3284271,5.1 14,5.77157288 14,6.6 C14,7.42842712 13.3284271,8.1 12.5,8.1 C11.6715729,8.1 11,7.42842712 11,6.6 C11,5.77157288 11.6715729,5.1 12.5,5.1 Z"></path>
        </g>
    </g>
</svg>