<?xml version="1.0" encoding="UTF-8"?>
<svg width="24px" height="24px" viewBox="0 0 24 24" version="1.1" xmlns="http://www.w3.org/2000/svg" xmlns:xlink="http://www.w3.org/1999/xlink">
    <title>8BE43698-5D78-4412-A985-D70FAEAB900B@1x</title>
    <g id="Symbols" stroke="none" stroke-width="1" fill="none" fill-rule="evenodd">
        <g id="Refresh" fill="#A9ACF8">
            <path d="M5.855,8.535 L7.12625,9.75 C6.84320505,10.3958593 6.69395256,11.0923709 6.6875,11.7975 C6.67852133,13.2305764 7.2407522,14.6082021 8.24987903,15.6257735 C9.25900585,16.6433449 10.6318986,17.2170363 12.065,17.22 L12.065,15.105 L15.63125,17.9625 L12.065,20.83125 L12.065,18.9075 C8.1656769,18.9013057 5.00619433,15.7418231 5,11.8425 C5.00689793,10.686233 5.30068089,9.54975679 5.855,8.535 Z M11.1425,3 L11.1425,4.78875 C11.4497617,4.77163023 11.7577383,4.77163023 12.065,4.78875 C14.5962257,4.76054732 16.9465991,6.097293 18.216291,8.28722024 C19.4859829,10.4771475 19.4783253,13.1810495 18.19625,15.36375 L18.19625,15.36375 L16.93625,14.0925 C17.2688534,13.3890078 17.4417327,12.6206553 17.4425,11.8425 C17.436296,8.8769831 15.0305234,6.47624351 12.065,6.47625 C11.7553851,6.47778699 11.4465737,6.50791493 11.1425,6.56625 L11.1425,6.56625 L11.1425,8.715 L7.565,5.8575 L11.1425,3 Z"></path>
        </g>
    </g>
</svg>