<svg xmlns="http://www.w3.org/2000/svg" xmlns:xlink="http://www.w3.org/1999/xlink" width="24" height="24" version="1.1"><rect id="backgroundrect" width="100%" height="100%" x="0" y="0" fill="none" stroke="none"/>
    <title>Warning</title>
    
<g class="currentLayer" style=""><title>Layer 1</title><g id="Warning" stroke="none" stroke-width="1" fill="#ffab13" fill-rule="evenodd" class="selected" fill-opacity="1">
        <path d="M12.03,4.95621417 C12.1800842,4.95621417 12.318174,5.03821878 12.39,5.17 L12.39,5.17 L20,19.41 C20.0742906,19.5434087 20.0661456,19.7074746 19.979007,19.8328692 C19.8918683,19.9582639 19.7409404,20.0231077 19.59,20 L19.59,20 L4.47,20 C4.32771403,20.0028639 4.19462161,19.9299124 4.12049487,19.8084269 C4.04636813,19.6869414 4.04237166,19.5352194 4.11,19.41 L4.11,19.41 L11.67,5.17 C11.741826,5.03821878 11.8799158,4.95621417 12.03,4.95621417 Z M12.75,16.93 L11.25,16.93 L11.25,18.46 L12.8,18.46 L12.75,16.93 Z M12.75,9.57 L11.25,9.57 L11.25,15.46 L12.8,15.46 L12.75,9.57 Z" id="Combined-Shape" fill="#ffab13" fill-opacity="1"/>
    </g></g></svg>