<?xml version="1.0" encoding="UTF-8"?>
<svg width="24px" height="24px" viewBox="0 0 24 24" version="1.1" xmlns="http://www.w3.org/2000/svg" xmlns:xlink="http://www.w3.org/1999/xlink">
    <title>Filter Outlined</title>
    <g id="Filter-Outlined" stroke="none" stroke-width="1" fill="none" fill-rule="evenodd">
        <path d="M14.5198534,19.7400361 C14.1732349,20.0866546 13.6133126,20.0866546 13.2666941,19.7400361 L9.70274467,16.1760867 C9.49832861,15.9716706 9.40945207,15.6961533 9.44500268,15.4384113 L9.44500268,10.8879322 L5.18781618,5.43980003 C4.88563593,5.05763088 4.95673717,4.49770865 5.33890631,4.1955284 C5.50777174,4.07110124 5.69441249,4 5.88994089,4 L18.3326572,4 C18.5281856,4 18.7148263,4.07110124 18.8836918,4.1955284 C19.2658609,4.49770865 19.3369621,5.05763088 19.0347819,5.43980003 L14.7775954,10.8879322 L14.7775954,19.0023608 C14.813146,19.2689904 14.7242695,19.5533954 14.5198534,19.7400361 Z M7.7030224,5.7775309 L11.2225336,10.2746841 L11.2225336,15.1806694 L13.0000645,16.9582002 L13.0000645,10.2657964 L16.5195757,5.7775309 L7.7030224,5.7775309 Z" id="Shape" fill="#696ef2"></path>
    </g>
</svg>