<?xml version="1.0" encoding="UTF-8"?>
<svg width="24px" height="24px" viewBox="0 0 24 24" version="1.1" xmlns="http://www.w3.org/2000/svg" xmlns:xlink="http://www.w3.org/1999/xlink">
    <title>Notification</title>
    <g id="Notification" stroke="none" stroke-width="1" fill="none" fill-rule="evenodd">
        <g id="More-info" fill="#2D31B4">
            <path d="M12,3 C14.3869484,3 16.6761336,3.94821156 18.363961,5.63603897 C20.0517884,7.32386638 21,9.61305159 21,12 C21,14.3869484 20.0517884,16.6761336 18.363961,18.363961 C16.6761336,20.0517884 14.3869484,21 12,21 C9.61305159,21 7.32386638,20.0517884 5.63603897,18.363961 C3.94821156,16.6761336 3,14.3869484 3,12 C3,7.02943725 7.02943725,3 12,3 Z M12,4.8 C8.031,4.8 4.8,8.031 4.8,12 C4.8,15.969 8.031,19.2 12,19.2 C15.969,19.2 19.2,15.969 19.2,12 C19.2,8.031 15.969,4.8 12,4.8 Z M12.9,11.1 L12.9,16.5 L11.1,16.5 L11.1,11.1 L12.9,11.1 Z M12.9,7.5 L12.9,9.3 L11.1,9.3 L11.1,7.5 L12.9,7.5 Z"></path>
        </g>
    </g>
</svg>