<?xml version="1.0" encoding="UTF-8"?><svg version="1.1" width="24px" height="24px" viewBox="0 0 24.0 24.0" xmlns="http://www.w3.org/2000/svg" xmlns:xlink="http://www.w3.org/1999/xlink"><defs><clipPath id="i0"><path d="M10.6461381,-1.33226763e-15 C10.5351745,0.313295356 10.4747856,0.650509383 10.4747856,1.00182798 C10.4747856,2.33248905 11.3411278,3.46080508 12.5405393,3.8535034 L9.41478563,7.87182798 L9.41478563,15.261828 C9.41665051,15.5252889 9.26393432,15.7653862 9.02452753,15.8753839 C8.78512073,15.9853816 8.50347061,15.944858 8.30478563,15.771828 L5.70478563,13.551828 C5.56261593,13.4281119 5.47912498,13.2502399 5.47478563,13.061828 L5.47478563,7.87182798 L0.114785626,1.11182798 C-0.0274575954,0.891100879 -0.0382540956,0.610439101 0.0866119958,0.379436832 C0.211478087,0.148434563 0.45220236,0.00372996054 0.714785626,0.00182798389 L10.6461381,-1.33226763e-15 Z"></path></clipPath><clipPath id="i1"><path d="M2,0 C3.1045695,0 4,0.8954305 4,2 C4,3.1045695 3.1045695,4 2,4 C0.8954305,4 0,3.1045695 0,2 C0,0.8954305 0.8954305,0 2,0 Z"></path></clipPath></defs><g transform="translate(4.525214373627706 4.998172016105229)"><g clip-path="url(#i0)"><polygon points="0,-1.33226763e-15 12.5405393,-1.33226763e-15 12.5405393,15.9365808 0,15.9365808 0,-1.33226763e-15" stroke="none" fill="#696EF2"></polygon></g></g><g transform="translate(16.0 4.0)"><g clip-path="url(#i1)"><polygon points="0,0 4,0 4,4 0,4 0,0" stroke="none" fill="#696EF2"></polygon></g></g></svg>